<svg xmlns="http://www.w3.org/2000/svg" xmlns:xlink="http://www.w3.org/1999/xlink" width="567.244" height="490.956" viewBox="0 0 567.244 490.956">
  <defs>
    <style>
      .cls-1, .cls-12, .cls-17, .cls-18 {
        opacity: 0.1;
      }

      .cls-2 {
        fill: #d89371;
      }

      .cls-3 {
        fill: #edb08e;
      }

      .cls-4 {
        fill: #2020c9;
      }

      .cls-17, .cls-5 {
        fill: #fff;
      }

      .cls-6 {
        fill: #b3b3b3;
      }

      .cls-7 {
        fill: #d6d6d6;
      }

      .cls-8 {
        fill: #ccc;
      }

      .cls-9 {
        fill: none;
        stroke: #ffac7c;
        stroke-linecap: round;
        stroke-linejoin: round;
        stroke-miterlimit: 10;
        stroke-width: 5.792px;
      }

      .cls-10 {
        fill: gray;
        font-size: 14px;
        font-family: Montserrat-Bold, Montserrat;
        font-weight: 700;
      }

      .cls-11 {
        clip-path: url(#clip-path);
      }

      .cls-13 {
        fill: #7f7f7f;
      }

      .cls-14 {
        fill: #666;
      }

      .cls-15 {
        fill: #fbb03b;
      }

      .cls-16, .cls-18 {
        clip-path: url(#clip-path-2);
      }
    </style>
    <clipPath id="clip-path">
      <path id="Tracé_78" data-name="Tracé 78" d="M268.229,316.442s14.151-12.105,17.043-17.306,17.043-34.943,23.684-36.4,27.433,15.02,36.109,19.935,33.217-.834,39.573,6.95,17.615,27.422,28.016,48.8,16.757,44.477,22.815,55.164,13.865,22.53,31.777,47.951,61.805,92.428,61.805,92.428H427.092s-25.707-77.122-39.859-97.629-23.684-20.221-35.526-23.97-40.327-14.78-55.541-31.937-20.838-6.767-28.382-22.941c-3.806-8.161,6.95-9.51,3.486-21.147s16.586-12.116,22.29-6.3c2.64,2.7,6.836,6.618,4.184,17.26,0,0,10.31-.5,14.951,4.4,0,0,6.081-.926,11,1.269,0,0,14.734-12.242,14.437-25.536s-4.058-19.6-25.433-29.754c0,0-7.693,10.1-13.511,10.688,0,0-7.727,8.459-11.614,11.088S271.693,326.227,268.229,316.442Z" transform="translate(-266.956 -262.652)"/>
    </clipPath>
    <clipPath id="clip-path-2">
      <path id="Tracé_99" data-name="Tracé 99" d="M204.138,246.912c-16.266,3.658-25.41,12.917-28.7,16.894-.24.286-.48.583-.709.892-.469.617-.7.972-.7.972s-10.185,1.692-13.682,7.464c0,0-6.15.377-10.482,3.566a54.218,54.218,0,0,1-11.419-8.424c-15.226,21.284-18.7,50.969-8.344,75.042,1.612-.846,3.258-1.692,4.938-2.652,10.779-6.172,36.292-22.976,47.54-42.956,9.179-16.311,15.98-13.351,20.335-21.147h0c4.847-5.121,5.955-9.6,16.666-15.957C225.342,257.177,218.507,243.688,204.138,246.912Z" transform="translate(-124.172 -246.418)"/>
    </clipPath>
  </defs>
  <g id="OBJECTS" transform="translate(0 -71.74)">
    <path id="Tracé_56" data-name="Tracé 56" class="cls-1" d="M225.913,265.059a57.185,57.185,0,0,0-11.591,3.829c-2.881-.914-7.247-3.715-11.876-7.213a28.822,28.822,0,0,0,10.608-8.23c3.589-.789,6.721-2.949,7.35-7.647,0,0-16.391-8.539-20.312-12.859s-26.336-27.319-33.126-27.319c-21.009,0-63.714,32.189-68.286,40.842s-11.419,29.5-17.066,51.815-6.973,45.437-10.642,56.764-8.79,24.107-20.918,51.769c-6.721,15.328-20.358,51.335-31.183,80.426v57.45H100.8c4.607-35.995,18.506-140.745,26.348-159.126,8.024-18.792,15.957-22.918,24.724-27.331,1.612-.812,3.258-1.635,4.938-2.56.331-.183.674-.377,1.029-.572.183-.1.366-.206.549-.32s.354-.206.549-.309c.286-.171.594-.343.892-.526.091-.057.171-.1.263-.149.343-.206.709-.423,1.074-.64.057-.034.1-.057.16-.091.4-.24.812-.492,1.234-.743.011-.011.034-.023.046-.034a187.015,187.015,0,0,0,16.872-11.636h0c9.43-7.35,19.055-16.506,24.873-26.485,9.179-15.763,15.98-12.894,20.335-20.438h0c4.847-4.938,5.955-9.282,16.666-15.408C247.128,274.981,240.292,261.939,225.913,265.059Zm-43.8,25.342s-6.15.366-10.482,3.441A54.39,54.39,0,0,1,160.21,285.7c-.423-.4-.937-.834-1.509-1.28,6.71-5.418,13.145-12.094,16.757-15.2,7.2-6.218,11.716,9.259,20.609,13.591-.183.24-.274.389-.274.389S185.62,284.811,182.111,290.4Z" transform="translate(2.7 18.01)"/>
    <path id="Tracé_57" data-name="Tracé 57" class="cls-2" d="M195.88,256.76c-2.629,0-7.921-3.349-13.6-7.8,8.127-3.509,15.82-13.831,11.316-13.831-5.99,0-25.719-17.363-32.612-25.433s-36.544,9.213-43.974,19.946c0,0-9.144,22.987,0,28.7h.011c-1.932,7.258-3.566,17.969,2.275,21.627,9.145,5.715,28.577-16.574,36.006-23.216s12,10.642,21.49,14.46S201.87,256.76,195.88,256.76Z" transform="translate(16.158 19.439)"/>
    <path id="Tracé_58" data-name="Tracé 58" class="cls-3" d="M196.081,221.309c-3.921-4.469-26.336-28.279-33.126-28.279-21.009,0-63.714,33.32-68.286,42.27S83.249,265.832,77.6,288.921s-6.973,47.014-10.642,58.742c-6.355,20.3-8.722,21.615-20.918,53.575-7.407,19.4-8.927,26.062-23.181,71.43C17.5,489.712,9.739,514.162,0,543.916H96.794c4.607-37.252,18.506-145.649,26.348-164.669,8.024-19.455,15.957-23.719,24.724-28.291,6.447-25.056,6.447-37.367,8.344-75.042-3.681-3.6-13.248-9.053-14.277-14.334-2.526-13.042-8.767-24.359,17.523-39.824,0,0,19.169,12.185,24.976,11.522,0,0,9.339,6.63,13.694,8.379s16.94,3.258,18.255-7.053C216.393,234.615,200,225.779,196.081,221.309Z" transform="translate(0 17.352)"/>
    <g id="Groupe_39" data-name="Groupe 39" transform="translate(162.28 71.74)">
      <path id="Tracé_60" data-name="Tracé 60" class="cls-1" d="M373.451,452.393H157.458A15.494,15.494,0,0,1,141.97,436.9V117.1a15.494,15.494,0,0,1,15.488-15.488H373.44A15.494,15.494,0,0,1,388.928,117.1V436.9A15.476,15.476,0,0,1,373.451,452.393Z" transform="translate(-141.97 -67.467)"/>
      <path id="Tracé_61" data-name="Tracé 61" class="cls-4" d="M373.451,446.483H157.458a15.494,15.494,0,0,1-15.488-15.488V111.188A15.494,15.494,0,0,1,157.458,95.7H373.44a15.494,15.494,0,0,1,15.488,15.488V430.994A15.476,15.476,0,0,1,373.451,446.483Z" transform="translate(-141.97 -68.312)"/>
      <rect id="Rectangle_34" data-name="Rectangle 34" class="cls-5" width="218.37" height="325.452" transform="translate(14.3 40.053)"/>
      <rect id="Rectangle_35" data-name="Rectangle 35" class="cls-6" width="132.595" height="10.973" transform="translate(78.334 98.6)"/>
      <rect id="Rectangle_36" data-name="Rectangle 36" class="cls-7" width="132.595" height="10.973" transform="translate(78.334 118.547)"/>
      <rect id="Rectangle_37" data-name="Rectangle 37" class="cls-7" width="176.031" height="10.973" transform="translate(34.898 138.493)"/>
      <path id="Tracé_62" data-name="Tracé 62" class="cls-7" d="M210.59,106.78a5.648,5.648,0,0,0,5.635,5.532h78.814a5.641,5.641,0,0,0,5.635-5.532Z" transform="translate(-132.153 -66.727)"/>
      <path id="Tracé_63" data-name="Tracé 63" class="cls-7" d="M295.054,83.925H267.826a12.185,12.185,0,1,0-24.37,0H216.228a5.656,5.656,0,0,0-5.658,5.658v19.089a5.656,5.656,0,0,0,5.658,5.658h78.814a5.656,5.656,0,0,0,5.658-5.658V89.583A5.647,5.647,0,0,0,295.054,83.925Zm-39.413,4.789a4.789,4.789,0,1,1,4.789-4.789A4.8,4.8,0,0,1,255.641,88.714Z" transform="translate(-132.156 -71.74)"/>
      <path id="Tracé_64" data-name="Tracé 64" class="cls-8" d="M210.58,99.63v5.052a5.656,5.656,0,0,0,5.658,5.658h78.814a5.656,5.656,0,0,0,5.658-5.658V99.63Z" transform="translate(-132.155 -67.75)"/>
      <g id="Groupe_34" data-name="Groupe 34" transform="translate(34.898 98.6)">
        <path id="Tracé_65" data-name="Tracé 65" class="cls-7" d="M200.322,163.715V183.2H178.215V163.715h22.107M206.037,158H172.5v30.92h33.537V158Z" transform="translate(-172.5 -158)"/>
      </g>
      <rect id="Rectangle_38" data-name="Rectangle 38" class="cls-6" width="132.595" height="10.973" transform="translate(78.334 167.916)"/>
      <rect id="Rectangle_39" data-name="Rectangle 39" class="cls-7" width="132.595" height="10.973" transform="translate(78.334 187.862)"/>
      <rect id="Rectangle_40" data-name="Rectangle 40" class="cls-7" width="176.031" height="10.973" transform="translate(34.898 207.809)"/>
      <rect id="Rectangle_41" data-name="Rectangle 41" class="cls-7" width="78.3" height="10.973" transform="translate(34.898 294.395)"/>
      <rect id="Rectangle_42" data-name="Rectangle 42" class="cls-7" width="42.865" height="10.973" transform="translate(34.898 313.656)"/>
      <rect id="Rectangle_43" data-name="Rectangle 43" class="cls-7" width="78.3" height="10.973" transform="translate(132.961 294.395)"/>
      <rect id="Rectangle_44" data-name="Rectangle 44" class="cls-7" width="42.865" height="10.973" transform="translate(132.961 313.656)"/>
      <g id="Groupe_35" data-name="Groupe 35" transform="translate(34.898 167.916)">
        <path id="Tracé_66" data-name="Tracé 66" class="cls-7" d="M200.322,224.355v19.489H178.215V224.355h22.107m5.715-5.715H172.5v30.92h33.537V218.64Z" transform="translate(-172.5 -218.64)"/>
      </g>
      <rect id="Rectangle_45" data-name="Rectangle 45" class="cls-6" width="176.031" height="10.79" transform="translate(34.898 237.219)"/>
      <g id="Groupe_36" data-name="Groupe 36" transform="translate(34.898 255.68)">
        <path id="Tracé_67" data-name="Tracé 67" class="cls-7" d="M245.324,301.135v19.489H178.215V301.135h67.109m5.715-5.715H172.5v30.92h78.54V295.42Z" transform="translate(-172.5 -295.42)"/>
      </g>
      <g id="Groupe_37" data-name="Groupe 37" transform="translate(132.389 255.68)">
        <path id="Tracé_68" data-name="Tracé 68" class="cls-7" d="M330.614,301.135v19.489H263.505V301.135h67.109m5.715-5.715H257.79v30.92h78.54V295.42Z" transform="translate(-257.79 -295.42)"/>
      </g>
      <path id="Tracé_69" data-name="Tracé 69" class="cls-9" d="M208.175,158.95,188.4,178.725l-10.31-10.31" transform="translate(-136.803 -59.264)"/>
      <path id="Tracé_70" data-name="Tracé 70" class="cls-9" d="M208.175,218.64,188.4,238.4l-10.31-10.31" transform="translate(-136.803 -50.724)"/>
      <g id="Groupe_38" data-name="Groupe 38" transform="translate(28.208 63.785)">
        <text id="Formulaire_d_inscription" data-name="Formulaire d’inscription" class="cls-10" transform="translate(0 14)"><tspan x="0" y="0">Formulaire d’inscription</tspan></text>
      </g>
    </g>
    <path id="Tracé_71" data-name="Tracé 71" class="cls-1" d="M193.485,257.68a57.185,57.185,0,0,0-11.591,3.829,29.523,29.523,0,0,1-6.458-3.395c-1.943,1.68-3.921,3.3-5.967,4.847-3.555,2.686-7.659,5.624-12.048,7.327a21.442,21.442,0,0,0,6.23,5.132c-.183.24-.274.389-.274.389s-10.185,1.635-13.682,7.213a25.284,25.284,0,0,0-8.024,2.046V314.41h.377v22.575c1.646-1.189,3.315-2.423,5-3.738h0c9.43-7.35,19.055-16.506,24.873-26.485,9.179-15.763,15.98-12.894,20.335-20.438h0c4.847-4.938,5.955-9.282,16.666-15.408C214.7,267.6,207.865,254.559,193.485,257.68Z" transform="translate(20.267 26.532)"/>
    <g id="Groupe_47" data-name="Groupe 47" transform="translate(278.356 289.964)">
      <path id="Tracé_72" data-name="Tracé 72" class="cls-1" d="M306.233,409.728h0l.16.126c.492.4.994.789,1.5,1.177.194.149.389.3.594.446l1.1.823c.229.171.446.332.674.492.354.251.709.514,1.063.766.229.16.457.32.7.48.366.251.743.514,1.12.766l.652.446c.446.3.892.583,1.337.869.149.091.3.194.446.286.594.377,1.189.743,1.783,1.109.194.114.377.229.572.343.423.251.834.5,1.257.754.24.137.48.274.709.411l1.132.652c.251.137.491.286.743.423.377.217.754.423,1.132.629.24.137.48.263.72.4.411.229.823.446,1.234.663.194.1.4.217.594.32.606.32,1.212.629,1.806.937.126.069.251.126.377.194.48.24.972.491,1.452.732.217.114.446.217.663.32.389.183.766.377,1.155.56l.72.343c.366.171.743.343,1.109.514.24.114.469.217.709.332l1.132.514c.206.091.423.194.629.286.492.217.972.434,1.463.64a2.927,2.927,0,0,1,.274.126c.572.251,1.132.492,1.692.72.183.08.366.149.549.229.377.16.754.32,1.132.469.206.091.411.171.617.251l1.029.411c.206.08.411.171.617.251.331.137.674.263.994.389.194.08.389.149.572.229.377.149.743.286,1.109.423.126.046.263.1.4.149.492.183.983.366,1.452.537.1.034.206.069.309.114.366.137.732.263,1.074.389.171.057.331.114.5.171.286.1.56.194.834.3.171.057.331.114.491.171.263.091.526.183.789.263.16.057.309.1.469.16.274.091.537.183.8.263.114.034.229.08.343.114.377.126.732.24,1.074.343,11.842,3.738,21.375,3.452,35.526,23.856,8.984,12.951,22.621,48.6,31.377,72.927h94.405c-14.391-21.7-34.886-52.375-45.78-67.749-17.912-25.3-25.707-37.081-31.777-47.723-3.7-6.5-7.533-17.637-12.311-30.165.057-.171.114-.343.171-.526.857-3.178-.572-6.3-3.178-7.167-2.263-5.624-4.732-11.4-7.5-17.055-10.4-21.272-21.661-40.819-28.016-48.569-3.955-4.812-14.928-4.424-24.759-4.618h-.16l-2.618-.069c-.1,0-.206-.011-.3-.011-.377-.011-.743-.034-1.109-.057-.1,0-.206-.011-.309-.011-.389-.023-.766-.046-1.143-.08-.08,0-.16-.011-.229-.011-.366-.023-.72-.057-1.074-.091-.08-.011-.171-.011-.251-.023l-.914-.1c-.126-.011-.251-.023-.377-.046q-.463-.069-.892-.137c-.114-.023-.229-.034-.331-.046-.274-.046-.537-.1-.8-.149l-.377-.069c-.263-.057-.5-.114-.754-.183-.114-.034-.24-.057-.343-.08-.229-.057-.434-.137-.652-.206-.126-.034-.251-.069-.377-.114-.183-.057-.343-.137-.514-.206-.137-.057-.3-.1-.434-.171-.3-.137-.583-.274-.857-.423s-.549-.309-.834-.492c-.126-.069-.251-.149-.377-.229-.171-.1-.343-.206-.526-.32-.16-.1-.332-.206-.492-.309s-.309-.194-.48-.3c-.194-.126-.4-.251-.606-.389-.137-.091-.274-.171-.411-.263-.217-.137-.446-.286-.663-.434-.137-.091-.274-.171-.411-.263-.251-.16-.5-.332-.754-.5-.114-.08-.229-.149-.354-.229-.286-.194-.583-.389-.88-.583-.091-.057-.183-.126-.274-.183-.377-.251-.766-.514-1.155-.766-9.83-6.618-22.9-15.66-27.9-14.585-6.641,1.44-20.792,31.046-23.684,36.224-2.046,3.669-9.75,10.79-14.071,14.62a1.435,1.435,0,0,0-.5.446c-.789.7-1.44,1.269-1.875,1.646l-9.362-1.052a7.034,7.034,0,0,0-2.48-.229,3.108,3.108,0,0,0-1.36.5,2.839,2.839,0,0,0-.549.5.8.8,0,0,1-.069.1l-3.041-.343c-.766-.194-1.44-.114-1.68.777s.309,1.3,1.063,1.52l2.8,1.223c.217,1.623,1.612,2.48,3.406,2.995l9.819,4.286-.343,1.269a1.37,1.37,0,0,0,.823,1.749l2.938.789a1.288,1.288,0,0,0,1.417-.72l.389.114c-1.577,1.589-2.24,3.829-1.36,6.813,3.463,11.579-7.293,12.917-3.486,21.044,7.544,16.094,13.168,5.75,28.382,22.827a70.457,70.457,0,0,0,8.047,7.59Zm-15.809-68.744c.617-.469,1.315-1.052,2.035-1.692a9.614,9.614,0,0,0,1.6,2.595Zm38.464,3.864c2.366-1.589,6.138-5.327,8.744-8.013a18.3,18.3,0,0,1,.766,1.669c-4.138,4.915-9,9.853-9,9.853a11.709,11.709,0,0,0,1.086,2.549l-11.808-2.926A20.612,20.612,0,0,0,328.888,344.847Zm-19.032-2.263a8.591,8.591,0,0,0,3.395,4.046l-8.859-2.195A21.854,21.854,0,0,0,309.856,342.584Zm-10.025,26.645c1.143-4.561,1.006-7.887.274-10.4l32.211,9.282a55.7,55.7,0,0,1-6.264,6.538l-.023.023c-.08.069-.149.126-.183.16h0a.7.7,0,0,0-.069.057c-.011,0-.011-.011-.023-.011-.309-.137-.629-.263-.949-.377a2.819,2.819,0,0,1-.331-.114c-.217-.069-.434-.149-.652-.206-.126-.034-.263-.069-.389-.1-.206-.057-.411-.1-.606-.149-.126-.023-.263-.057-.389-.08-.206-.046-.411-.08-.617-.114-.114-.023-.24-.034-.354-.057-.217-.034-.423-.057-.64-.091l-.3-.034c-.229-.023-.457-.046-.686-.057-.069,0-.137-.011-.217-.011-.251-.011-.5-.034-.743-.034h-.114c-.274-.011-.537-.011-.8-.011h0a24.2,24.2,0,0,0-3.2.194C310.142,368.726,299.831,369.229,299.831,369.229Z" transform="translate(-242.265 -259.463)"/>
      <g id="Groupe_46" data-name="Groupe 46">
        <path id="Tracé_73" data-name="Tracé 73" class="cls-2" d="M331.588,294.817V287.41H308.932c-2.538,4.126-3.978,6.984-4.709,8.3-2.892,5.2-17.043,17.306-17.043,17.306,3.463,9.8,15.454,5.658,19.341,3.029s11.613-11.088,11.613-11.088C318.511,304.91,335.874,292.92,331.588,294.817Z" transform="translate(-237.272 -259.11)"/>
        <path id="Tracé_74" data-name="Tracé 74" class="cls-2" d="M346.788,298.04V287.41H326.179c-3.841,5.864-5.852,9.9-6.755,11.522-2.892,5.2-17.043,17.306-17.043,17.306,3.463,9.8,15.454,5.658,19.341,3.029s11.613-11.088,11.613-11.088C333.7,308.134,351.063,296.143,346.788,298.04Z" transform="translate(-235.097 -259.11)"/>
        <path id="Tracé_75" data-name="Tracé 75" class="cls-2" d="M356.945,304.6V287.41H343.514a144.03,144.03,0,0,0-9.487,18.083c-2.423,5.2-14.277,17.306-14.277,17.306,2.9,9.8,12.939,5.658,16.2,3.029s9.727-11.088,9.727-11.088C345.983,314.695,360.534,302.7,356.945,304.6Z" transform="translate(-232.612 -259.11)"/>
        <g id="Groupe_41" data-name="Groupe 41" transform="translate(26.791)">
          <path id="Tracé_76" data-name="Tracé 76" class="cls-3" d="M268.229,316.442s14.151-12.105,17.043-17.306,17.043-34.943,23.684-36.4,27.433,15.02,36.109,19.935,33.217-.834,39.573,6.95,17.615,27.422,28.016,48.8,16.757,44.477,22.815,55.164,13.865,22.53,31.777,47.951,61.805,92.428,61.805,92.428H427.092s-25.707-77.122-39.859-97.629-23.684-20.221-35.526-23.97-40.327-14.78-55.541-31.937-20.838-6.767-28.382-22.941c-3.806-8.161,6.95-9.51,3.486-21.147s16.586-12.116,22.29-6.3c2.64,2.7,6.836,6.618,4.184,17.26,0,0,10.31-.5,14.951,4.4,0,0,6.081-.926,11,1.269,0,0,14.734-12.242,14.437-25.536s-4.058-19.6-25.433-29.754c0,0-7.693,10.1-13.511,10.688,0,0-7.727,8.459-11.614,11.088S271.693,326.227,268.229,316.442Z" transform="translate(-266.956 -262.652)"/>
          <g id="Groupe_40" data-name="Groupe 40" class="cls-11">
            <path id="Tracé_77" data-name="Tracé 77" class="cls-1" d="M420.435,360.954l-8.984-2.858c-.034-.126-.069-.24-.114-.366s-.08-.229-.126-.343c-.057-.16-.114-.332-.183-.48-.046-.126-.114-.24-.16-.354-.069-.149-.137-.3-.206-.434-.126-.24-.263-.48-.411-.709-.069-.1-.137-.194-.206-.3-.1-.137-.194-.274-.3-.411-.08-.1-.16-.194-.24-.286-.1-.126-.217-.251-.331-.366-.091-.091-.171-.171-.263-.251-.126-.114-.251-.229-.377-.332a2.68,2.68,0,0,0-.286-.217c-.137-.1-.286-.206-.423-.3-.091-.057-.183-.126-.286-.183a5.434,5.434,0,0,0-.514-.274,2.579,2.579,0,0,0-.251-.126,8.781,8.781,0,0,0-.823-.32L341.37,331.52a1.617,1.617,0,0,0-.994-1.692L336.4,328.48a1.625,1.625,0,0,0-1.886.857l-71.59-22.758a1.435,1.435,0,0,0-.869-1.555l-3.223-1.086a1.548,1.548,0,0,0-1.863,1.12l-.469,1.395-11.785-2.092c-1.612-.514-3.132-.663-4.286.034a3.2,3.2,0,0,0-.732.64l-3.361-.594c-.834-.263-1.6-.229-1.932.754s.251,1.475,1.074,1.772l3.029,1.566c.126,1.829,1.623,2.892,3.578,3.589l10.63,5.5-.469,1.395a1.541,1.541,0,0,0,.8,2.023l3.223,1.086a1.443,1.443,0,0,0,1.646-.7l70.664,25.433a1.647,1.647,0,0,0,.983,1.829l3.978,1.349a1.6,1.6,0,0,0,1.806-.743l63.76,22.953a8.534,8.534,0,0,0,8.047-1.452l2.538.914h0l6.321,2.275c3.063,1.1,6.573-.983,7.807-4.629C425.064,365.732,423.533,361.937,420.435,360.954Z" transform="translate(-271.627 -256.755)"/>
          </g>
        </g>
        <g id="Groupe_44" data-name="Groupe 44" transform="translate(63.968 125.346)">
          <g id="Groupe_43" data-name="Groupe 43">
            <g id="Groupe_42" data-name="Groupe 42" class="cls-12">
              <path id="Tracé_79" data-name="Tracé 79" d="M351.7,390.222c-6.927-2.366-29.891-10.436-52.215-17.912,15.729,12.848,37.572,21.192,47.563,24.359,11.842,3.749,21.375,3.464,35.526,23.97s39.859,97.629,39.859,97.629H429.9s-28.542-80.106-42.693-102.213S363.537,394.268,351.7,390.222Z" transform="translate(-299.48 -372.31)"/>
            </g>
          </g>
        </g>
        <g id="Groupe_45" data-name="Groupe 45" transform="translate(0 47.998)">
          <path id="Tracé_80" data-name="Tracé 80" class="cls-13" d="M394.04,355.209l13.648,3.944c3.121.9,6.5-1.395,7.5-5.109s-.766-7.407-3.921-8.184l-13.785-3.429Z" transform="translate(-221.984 -299.237)"/>
          <path id="Tracé_81" data-name="Tracé 81" class="cls-13" d="M394.04,355.209l13.648,3.944c3.121.9,6.5-1.395,7.5-5.109s-.766-7.407-3.921-8.184l-13.785-3.429Z" transform="translate(-221.984 -299.237)"/>
          <path id="Tracé_82" data-name="Tracé 82" class="cls-13" d="M394.04,355.209l13.648,3.944c3.121.9,6.5-1.395,7.5-5.109s-.766-7.407-3.921-8.184l-13.785-3.429Z" transform="translate(-221.984 -299.237)"/>
          <path id="Tracé_83" data-name="Tracé 83" class="cls-14" d="M404.968,351.29a11.914,11.914,0,0,0-.217-7.064l-7.27-1.806L394.04,355.2l7.19,2.08A11.849,11.849,0,0,0,404.968,351.29Z" transform="translate(-221.984 -299.238)"/>
          <path id="Tracé_84" data-name="Tracé 84" class="cls-13" d="M244.766,308.965l4,1.749,1.029-3.841-4.332-.492c-.857-.217-1.612-.126-1.875.88C243.3,308.268,243.92,308.725,244.766,308.965Z" transform="translate(-243.518 -304.408)"/>
          <path id="Tracé_85" data-name="Tracé 85" class="cls-13" d="M251.152,313.8l12.276,5.384,3.178-11.808-13.328-1.5c-2.629-.652-4.949-.4-5.784,2.7S248.546,313.044,251.152,313.8Z" transform="translate(-242.977 -304.508)"/>
          <path id="Tracé_86" data-name="Tracé 86" class="cls-14" d="M264.816,314.015l1.783-6.641-13.328-1.5c-2.629-.652-4.949-.4-5.784,2.7a7.1,7.1,0,0,0-.137.754Z" transform="translate(-242.97 -304.508)"/>
          <path id="Tracé_87" data-name="Tracé 87" class="cls-13" d="M263.34,321.416,409.4,363.675c4.835,1.406,10.07-2.172,11.625-7.921s-1.189-11.465-6.081-12.688L267.386,306.35Z" transform="translate(-240.682 -304.398)"/>
          <path id="Tracé_88" data-name="Tracé 88" class="cls-14" d="M421.086,353.446c.377-4.9-2.24-9.339-6.47-10.39L267.059,306.34l-1.429,5.292Z" transform="translate(-240.355 -304.4)"/>
          <path id="Tracé_89" data-name="Tracé 89" class="cls-15" d="M348.8,335.693a2.718,2.718,0,0,0,1.875,3.326l47.574,13.762a3.7,3.7,0,0,0,1.9-7.076L352.083,333.75a2.725,2.725,0,0,0-3.281,1.943Z" transform="translate(-228.47 -300.49)"/>
          <path id="Tracé_90" data-name="Tracé 90" class="cls-15" d="M334.762,321.786l4.058,1.1a1.727,1.727,0,0,1,1.029,2.195l-4.584,17.043a1.733,1.733,0,0,1-1.989,1.383l-4.058-1.1a1.727,1.727,0,0,1-1.029-2.195l4.584-17.043A1.715,1.715,0,0,1,334.762,321.786Z" transform="translate(-231.416 -302.197)"/>
          <path id="Tracé_91" data-name="Tracé 91" class="cls-15" d="M265.541,304.685l3.281.88a1.554,1.554,0,0,1,.926,1.966l-3.829,14.243a1.546,1.546,0,0,1-1.783,1.234l-3.281-.88a1.554,1.554,0,0,1-.926-1.966l3.829-14.243A1.546,1.546,0,0,1,265.541,304.685Z" transform="translate(-241.18 -304.643)"/>
        </g>
        <path id="Tracé_92" data-name="Tracé 92" class="cls-3" d="M300.315,339.362c-1.543-.091-2.572-.046-2.572-.046,2.64-10.642-1.543-14.563-4.184-17.26-5.715-5.818-25.765-5.338-22.29,6.3s-7.293,12.985-3.486,21.147c7.544,16.163,13.168,5.772,28.382,22.941,1.292,1.452,2.686,2.858,4.149,4.229Z" transform="translate(-240.165 -254.676)"/>
        <path id="Tracé_93" data-name="Tracé 93" class="cls-3" d="M300.156,270.79c-6.321,9.625-13.134,23.741-15.043,27.171-2.892,5.2-17.043,17.306-17.043,17.306,3.463,9.8,15.454,5.658,19.341,3.029s11.614-11.088,11.614-11.088a5.886,5.886,0,0,0,1.132-.24Z" transform="translate(-240.006 -261.488)"/>
        <path id="Tracé_94" data-name="Tracé 94" class="cls-1" d="M328.11,275.55h0c.263.183,9.327,8.024,30.417,16.837s-1.589-9.156-1.589-9.156h0c-8-.149-16.289.057-20.621-2.4C334.18,279.619,331.311,277.71,328.11,275.55Z" transform="translate(-231.416 -260.807)"/>
        <path id="Tracé_95" data-name="Tracé 95" class="cls-1" d="M307.435,294.06a13.058,13.058,0,0,1-3.612-6.07s-.663,6.367,1.349,8.767Z" transform="translate(-234.906 -259.027)"/>
        <path id="Tracé_96" data-name="Tracé 96" class="cls-1" d="M267.67,346.632s3.178-8.333,10.688-8.161c0,0-9.133,4.687-9.91,9.75Z" transform="translate(-240.063 -251.806)"/>
      </g>
    </g>
    <g id="Groupe_50" data-name="Groupe 50" transform="translate(141.937 271.408)">
      <path id="Tracé_97" data-name="Tracé 97" class="cls-3" d="M204.138,246.912c-16.266,3.658-25.41,12.917-28.7,16.894-.24.286-.48.583-.709.892-.469.617-.7.972-.7.972s-10.185,1.692-13.682,7.464c0,0-6.15.377-10.482,3.566a54.218,54.218,0,0,1-11.419-8.424c-15.226,21.284-18.7,50.969-8.344,75.042,1.612-.846,3.258-1.692,4.938-2.652,10.779-6.172,36.292-22.976,47.54-42.956,9.179-16.311,15.98-13.351,20.335-21.147h0c4.847-5.121,5.955-9.6,16.666-15.957C225.342,257.177,218.507,243.688,204.138,246.912Z" transform="translate(-124.172 -246.418)"/>
      <g id="Groupe_48" data-name="Groupe 48" class="cls-16">
        <path id="Tracé_98" data-name="Tracé 98" class="cls-17" d="M202.821,251.9c-7.316,2.138-15.02,8.173-13.465,9.9s8.779,8.413,10.676,6.424,12.105-6.138,9.442-10.779S204.924,251.279,202.821,251.9Z" transform="translate(-114.876 -245.653)"/>
      </g>
      <g id="Groupe_49" data-name="Groupe 49" class="cls-18">
        <path id="Tracé_100" data-name="Tracé 100" d="M182.67,269.99a12.764,12.764,0,0,1,3.829.914,18.564,18.564,0,0,1,6.424,4.309,12.964,12.964,0,0,1,2.3,3.2,27.479,27.479,0,0,1-3.418-1.795c-1.074-.64-2.115-1.315-3.132-2s-2.035-1.395-3.029-2.149A29.449,29.449,0,0,1,182.67,269.99Z" transform="translate(-115.804 -243.046)"/>
      </g>
    </g>
    <g id="Groupe_51" data-name="Groupe 51" transform="translate(83.066 351.253)">
      <path id="Tracé_102" data-name="Tracé 102" class="cls-1" d="M90.57,415.071c-4.9,35.915-14.163,89.422-17.9,111.357H86.4C91,489.175,104.9,380.779,112.746,361.758,120.77,342.3,128.7,338.04,137.47,333.468c1.612-.846,3.258-1.692,4.938-2.652a181.946,181.946,0,0,0,22.667-15.546c-26.188,9.9-44.179,17.637-53.152,26.519C106.653,346.99,96.674,370.491,90.57,415.071Z" transform="translate(-72.67 -315.27)"/>
    </g>
  </g>
</svg>
