<svg xmlns="http://www.w3.org/2000/svg" width="36" height="35.992" viewBox="0 0 36 35.992">
  <path id="Icon_awesome-instagram" data-name="Icon awesome-instagram" d="M18,11.006a9.228,9.228,0,1,0,9.228,9.228A9.213,9.213,0,0,0,18,11.006Zm0,15.227a6,6,0,1,1,6-6A6.01,6.01,0,0,1,18,26.233Zm11.758-15.6A2.152,2.152,0,1,1,27.6,8.476,2.147,2.147,0,0,1,29.756,10.628Zm6.112,2.184c-.137-2.883-.8-5.437-2.907-7.541S28.3,2.509,25.42,2.364c-2.972-.169-11.878-.169-14.85,0-2.875.137-5.429.8-7.541,2.9S.266,9.922.121,12.8c-.169,2.972-.169,11.878,0,14.85.137,2.883.8,5.437,2.907,7.541S7.687,37.959,10.57,38.1c2.972.169,11.878.169,14.85,0,2.883-.137,5.437-.8,7.541-2.907s2.763-4.658,2.907-7.541c.169-2.972.169-11.87,0-14.842Zm-3.839,18.03a6.074,6.074,0,0,1-3.421,3.421c-2.369.94-7.991.723-10.609.723s-8.248.209-10.609-.723a6.074,6.074,0,0,1-3.421-3.421c-.94-2.369-.723-7.991-.723-10.609s-.209-8.248.723-10.609A6.074,6.074,0,0,1,7.389,6.2C9.759,5.263,15.381,5.48,18,5.48s8.248-.209,10.609.723a6.074,6.074,0,0,1,3.421,3.421c.94,2.369.723,7.991.723,10.609S32.969,28.482,32.029,30.843Z" transform="translate(0.005 -2.238)" fill="#37474e"/>
</svg>
