<svg xmlns="http://www.w3.org/2000/svg" width="36" height="25.312" viewBox="0 0 36 25.312">
  <path id="Icon_awesome-youtube" data-name="Icon awesome-youtube" d="M36.706,10.211a4.523,4.523,0,0,0-3.183-3.2C30.716,6.25,19.458,6.25,19.458,6.25S8.2,6.25,5.393,7.007a4.524,4.524,0,0,0-3.183,3.2c-.752,2.826-.752,8.721-.752,8.721s0,5.9.752,8.721a4.456,4.456,0,0,0,3.183,3.152c2.808.757,14.065.757,14.065.757s11.257,0,14.065-.757a4.456,4.456,0,0,0,3.183-3.152c.752-2.826.752-8.721.752-8.721s0-5.9-.752-8.721ZM15.776,24.285V13.579l9.409,5.353-9.409,5.353Z" transform="translate(-1.458 -6.25)" fill="#37474e"/>
</svg>
